<?xml version="1.0" standalone="no"?><!DOCTYPE svg PUBLIC "-//W3C//DTD SVG 1.1//EN" "http://www.w3.org/Graphics/SVG/1.1/DTD/svg11.dtd"><svg t="1626081013581" class="icon" viewBox="0 0 1462 1024" version="1.1" xmlns="http://www.w3.org/2000/svg" p-id="3685" xmlns:xlink="http://www.w3.org/1999/xlink" width="91.375" height="64"><defs><style type="text/css"></style></defs><path d="M920.41572 983.71614l-1.074988-0.735518c-1.414457-0.961831-3.621011-2.093397-5.657829-3.111806l-0.792096-0.509205c-0.961831-0.622361-2.149975-1.188144-3.055228-1.810505l-5.092047-3.055228h-0.565783l-256.412838-160.173156a135.787911 135.787911 0 0 1-60.199307-82.830626 132.845839 132.845839 0 0 1 13.465635-100.539632 126.565648 126.565648 0 0 1 112.081604-62.575595l-178.95715-384.16663C502.811317 117.559006 527.705767 39.650692 589.545845 10.795761s137.541838 2.149975 168.716479 68.968943l57.540127 123.397264a99.464644 99.464644 0 0 1 26.026016-17.709007 108.517172 108.517172 0 0 1 94.259441 2.772337 104.330378 104.330378 0 0 1 43.735023-39.604808 102.802764 102.802764 0 0 1 67.158437-6.506504 128.206419 128.206419 0 0 1 49.336274 23.536572 102.859342 102.859342 0 0 1 25.969438-17.539272c57.596705-26.874691 129.734033 5.65783 160.908674 72.646532l150.44169 322.496287c33.324616 71.40181 38.52982 165.03889 13.409056 238.647253-14.031417 40.962686-36.040375 70.326822-62.236126 82.547734l-318.875276 148.74434c-59.690102 27.836522-107.498762-3.960481-145.519378-29.477292zM1363.536935 801.873497c9.61831-4.582842 26.139173-31.910159 33.098303-78.70041a263.371968 263.371968 0 0 0-19.293199-145.12333l-154.798218-331.944862c-12.61696-27.157582-40.396903-42.886348-59.463789-33.946978A28.289148 28.289148 0 0 0 1152.49989 220.70124l54.088851 116.098663a39.604807 39.604807 0 0 1-71.741279 33.381195l-46.959986-100.709367-15.332718-27.270739c-13.578791-24.328667-39.321916-37.398254-57.313814-28.968087a34.229869 34.229869 0 0 0-16.973489 22.631318l58.501959 125.603817A39.604807 39.604807 0 1 1 984.462351 395.01897l-51.486249-110.497412-8.713058-11.655129c-14.484044-19.349777-36.889049-28.289148-52.052032-21.499753-10.353828 4.809155-17.312959 16.973489-18.783994 32.19305l56.974344 125.038035 21.839222 46.846829a36.096953 36.096953 0 0 1-16.577441 48.14813l-7.807805 3.621011a35.983796 35.983796 0 0 1-47.412612-18.161633l-174.31773-373.925959-6.336769-13.239321c-13.069586-28.289148-43.225818-41.471891-67.497907-30.156232s-33.324616 43.225818-20.368187 71.118918l170.979611 362.497143c0.622361 1.074988 1.188144 2.206554 1.697349 3.281541L831.700952 652.959421a40.736373 40.736373 0 0 1-14.484044 50.920467 39.944277 39.944277 0 0 1-51.995454-8.713058l-32.475942-34.456182a53.80596 53.80596 0 0 0-41.245578-7.015709 52.561237 52.561237 0 0 0-33.324616 24.781294 57.144079 57.144079 0 0 0 19.462934 76.550434l264.107486 164.69942 0.848674 0.452627 3.281541 2.036818 4.017059 2.546024c2.546023 1.640771 5.148625 3.168385 7.355179 4.29995l1.64077 0.792096 1.471036 1.301301c42.433722 28.289148 55.673043 32.645677 73.834676 24.158932L1363.536935 802.043231v-0.282891z" p-id="3686"></path><path d="M157.683711 62.508324m14.144574 0l36.323266 0q14.144574 0 14.144574 14.144574l0 426.147726q0 14.144574-14.144574 14.144574l-36.323266 0q-14.144574 0-14.144574-14.144574l0-426.147726q0-14.144574 14.144574-14.144574Z" p-id="3687"></path></svg>