<?xml version="1.0" standalone="no"?><!DOCTYPE svg PUBLIC "-//W3C//DTD SVG 1.1//EN" "http://www.w3.org/Graphics/SVG/1.1/DTD/svg11.dtd"><svg t="1624599918209" class="icon" viewBox="0 0 1024 1024" version="1.1" xmlns="http://www.w3.org/2000/svg" p-id="10002" xmlns:xlink="http://www.w3.org/1999/xlink" width="64" height="64"><defs><style type="text/css"></style></defs><path d="M896 128H128a128 128 0 0 0-128 128v512a128 128 0 0 0 128 128h768a128 128 0 0 0 128-128V256a128 128 0 0 0-128-128zM320 736H160a32 32 0 0 1-32-32v-32a32 32 0 0 1 32-32h160z m256-32a32 32 0 0 1-32 32h-160v-96h160a32 32 0 0 1 32 32z m320-256a64 64 0 0 1-64 64H192a64 64 0 0 1-64-64v-128a64 64 0 0 1 64-64h640a64 64 0 0 1 64 64z" p-id="10003"></path></svg>